<svg xmlns="http://www.w3.org/2000/svg" viewBox="0 0 863 942">
  <path fill="#f5a67b" d="M460 6v2l2 1 15 5 10 3v2h2l12 5 1 3 4 2 1 2h4v2c6 3 6 3 13 4v2l13 2 1 3 5-1 2 3h3l1 3-1 2h2l5 3q5 4 11 6v2h2l2-1h3l4 1 1 2 1-2 1 2 5 1v2l6 2v2l3 1 1 4 3-1 5 4 9 4h3l8 2v2l4 1 1-2 1 2c5 5 5 5 11 8h2v3l4-1v3h4l3 1h2l1 2h2l2 3q3 3 7 2v2h2q8 1 13 6l4 1q5 2 8 6l12 7v-2h2l1 3h6v2l6 2v2l7 1v2h3l1 2h2l5 4 2-1v2h4l4 3 5 2 8 4h2v2l5 1v2h2v2h4l3 3 5 1v2l2 1h3l3 1 4 3 3 1h3l1 2 4 1v2h2l6 3 2 2 3 3 4 1q15 6 26 17l1 4 3 1c9 13 8 30 8 46l1 6v30l1 31v24l-1 33v29l-2 276c0 18 0 33-12 47l-2 3-2 2h-2l-1 2c-5 9-22 15-31 19l-17 8-9 5-3 1-54 25-1 2q-12 8-26 13l-11 6-11 5-8 5-12 5q-15 6-29 15l-16 7-12 6-4 1v2l-39 19-9 4-5 3-24 10v2l-3 1-17 9-14 6-7 3-2 1-15 7q-20 14-44 9l-15-6-3-1-53-26q-16-7-30-16c-12-7-12-7-25-11q-8-3-14-8-10-7-22-11l-17-9-25-12q-11-4-20-11l-15-7-16-7-2-1-10-7-14-7-7-3-3-1-21-11-16-8-38-19-20-10-2-1q-7-4-9-10l-4-5c-7-10-10-17-10-29l-1-4v-31l-1-8 1-3v-6l-1-12-1-18 1-9v-5l-2-1v-2l1-10v-2l-1-7v-8l1-5v-23l1-4H3v-9l1-4v-8l-1-5h2l-1-2-2-8 2-2v-6l-2-1 2-4H2l1-3 1-6-2-2 1-3 1-3-2-3v-14l2-4-2-1 1-3v-7l-1-9v-9l1-5h2l-3-2v-7h4l-2-4-2 1v-8l-1-5 1-4h2v-4l-2-1v-14h2l-1-1q-3-5-2-11v-3q-1-9 3-17v-5l-2-1v-16h2v-3H2c-1-8-1-8 1-12l-1-3 2-5-2-1h2l-2-3 1-5-2-1-1-3 2-3v-10l1-8 1-11q0-15 5-29l1-10 4-4 2-3 11-8 9-7c18-13 18-13 27-13l1-3h2l5-3 6-2 4-2 1-3h2l4-1 6-3 4-1 1-2q5-4 11-5l1-3h2l3-1 1-2h4l5-2 2-1 7-2 1-3 1-3 7-2 4-3 4-2 2-1q4-2 9-2t9-3h2v-2l2-1q4-1 5-5h2v-2l4-2 2 1v-2q6-4 14-5c8-1 8-1 15-4v-2h3l1-2h2l2-4 2 1 1-2q3-6 11-7l8-5v2l3-1 6-2v2l2-1 3-2 2-2 7-1v-5l2-1 1-2 3-1 5-5 7-2v2l2 1v-3l9-1 2-2v2l11-5 5-2v-2h-3v-2h6l1-5 11-1v-2l4-5 7 3 1-2v2l7-3 2-1 8-4 5-5 1-2 1-2 3 2 6-7h3v2l6-2v-2l10-2 10-4 2-1 11-5c13-7 27-3 40 3"/>
  <path fill="#ebe374" d="m727 165 24 14 42 21 21 11c18 9 18 9 22 18l2 13v116c0 16 0 16-5 22l-1 2-6 4v3l2 1q7 3 9 10v6l1 125q0 12-6 20l-2 2-1 4q2 5 6 6 5 9 3 19v25l1 91q0 13-7 23-6 6-12 8l-3 2-9 4-9 5-72 35-3 2-3 1q-5 3-9 2h-14l-1 2q-6 14-21 18l-20 10-6 3-64 32q-12 6-26 3l-1 3q-5 11-18 16l-3 2-49 24-30 15-2 1-4 2q-8 6-17 4h-3q-17 0-33-10v-1l-3-1-4-1-4-1-4-3-1-2-5-2-3-1-2-1v-2h-2l-7-4q-6-4-13-5l-6-3v-2l-4-1v-2h-9q-5-1-7-5v-2l-6-2v-2h-2l-6-3-2-2-1-1v-3h-2l-3-19V714q-1-10 6-17l2-5-2-3c-7-7-6-21-6-29V553c0-19 0-19 6-25l2-3 11 4 3 1 3 2 3 2 63 31 18 9q8 5 16 5l4 1c13-1 26-10 38-16l47-23 2-2 8-3 2-2 16-8 6-1 1-2 5-9q3-6 3-13V381q0-11-7-20-10-8-22-13l-17-9-3-2-10-5-30-15-31-16h2v-3q2-7 9-12l12-6 2-1 10-5 2-1 28-14 9-4 15-9 8-3 6-3q18-10 38-9v-2q2-8 10-12l25-13 39-19 33-17 3-1 2-1 2-1c9-4 22-4 31 0"/>
  <path fill="#c0a690" d="m452 28 4 2 15 8 6 3 4 1v2l4 1q4 0 8 3l13 8 2 1 11 5 21 11c18 9 18 9 21 15l1 6h4q14-2 26 5l3 1 34 17v2l6 1v2l2 1 13 5 3 1 18 10 10 5c15 8 15 8 18 14v6l-3 1-43 22-44 22c-15 6-15 6-26 18v2l-3 3h-4q-19 1-36 11l-6 3-2 1-2 1-8 5-7 3-53 26-2 1-8 5-5 2-2 5-2 6 31 16 40 20 2 1 11 6c30 15 30 15 34 27v40l1 97h-2v2l-4 9-2 3q-3 4-7 5l-9 5-2 1-71 35c-27 14-27 14-42 12l-11-5-9-5-2-1-7-3-2-1-5-2-41-22-13-6-4-2-6-3c-13-6-13-6-16-14l-4-5h-9c-10 1-18-5-27-10l-16-9-16-8-8-3-5-3-8-4-27-14-2-1-6-2q-10-6-13-17V311q0-7 4-11 7-2 12 1l9 4 3 2 35 18 3 1 9 4 10 5 5 3c20 11 20 11 42 16h3q12-1 23-8l3-1 10-5 67-34 3-1 14-7q0-5-4-8l-19-11-4-2-26-13-2-1-43-22-2-1-8-4-2-1-14-4h-11l-2-6q-9-8-21-14l-3-1-81-42-3-1q-7-3-7-7 1-7 7-11l31-16 15-8 29-14 5-3 6-1v-2l3-2 3-1 4-2 10-4q11-4 23-3l4-9h3l1-2q3-4 9-6l21-10 13-7 9-5 17-8 2-1 2-1 21-11 2-1 5-3q19-9 38-1"/>
  <path fill="#ede375" d="M312 530q9 2 16 7l80 40c17 9 17 9 21 17l1 3q3 5 2 11v122c0 6 0 6 2 11l8 4 13-5 18-10 2-1 38-19 3-1 11-6 3-1 2-1h5l-1 3 11-6v-3l-7 2 10-7 2 1-1 3 3 2q7 6 8 15l1 15v11l-1 11v97l-3 1-2 7h-2l-1 2c-4 8-17 12-25 16l-4 3-9 6-4 2-3 1-13 7-6 2-2 2-9 4-16 8-3 1-6 3-3 2-2 1-3 2h-18q-15-1-28-10v-1l-3-1-4-1-4-1-4-3-1-2-5-2-3-1-2-1v-2h-2l-7-4q-6-4-13-5l-6-3v-2l-4-1v-2h-9q-5-1-7-5v-2l-6-2v-2h-2l-6-3-2-2-1-1v-3h-2l-3-19v-4a1385 1385 0 0 1 0-113v-3q-1-10 6-17l2-5-2-3c-7-7-6-21-6-29V553c0-17 0-17 3-22z"/>
  <path fill="#ebe471" d="m727 165 24 14 42 21 21 11c18 9 18 9 22 18l2 13v116c0 16 0 16-5 22l-1 2-6 4v2l-2 1-63 31-34 17-3 2-3 1-2 1q-5 3-12 2h-3l-5-1 1-2 2-11v-26l1-89v-4q0-12-7-22l-6-4-3-2-4-2-3-2-45-22-51-28q-1-4 3-8l30-16 39-19 33-17 3-1 2-1 2-1c9-4 22-4 31 0"/>
  <path fill="#d9c2a9" d="M426 301h8q9 0 17 4l31 16 29 15 13 7c33 15 33 15 37 28v40l1 97h-2v2l-4 9-2 3q-3 4-7 5l-9 5-2 1-5 2-9 4-65 33-2 1c-11 5-11 5-16 4q-6-3-7-9v-16l-1-102q1-13-8-25-10-7-21-11l-77-39c-7-4-7-4-16-5l-4 2 1-5 1-2q3-8 10-11l3-2 4-1 45-23 43-22z"/>
  <path fill="#83e8e1" d="M460 6v2l2 1 15 5 10 3v2h2l12 5 1 3 4 2 1 2h4v2c6 3 6 3 13 4v2l13 2 1 3 5-1 2 3h3l1 3-1 2h2l5 3q5 4 11 6v2h2l2-1h3l4 1 1 2 1-2 1 2 5 1v2l6 2v2l3 1 1 4 3-1 5 4 9 4h3l8 2v2l4 1 1-2 1 2c5 5 5 5 11 8h2v3l4-1v3h4l3 1h2l1 2h2l2 3q3 3 7 2v2h2q8 1 13 6l4 1q5 2 8 6l12 7v-2h2l1 3h6v2l6 2v2l7 1v2h3l1 2h2l5 4 2-1v2h4l4 3 5 2 8 4h2v2l5 1v2h2v2h4l3 3 5 1v2l2 1h3l3 1 4 3 3 1h3l1 2 4 1v2h2l6 3 2 2 3 3 4 1q15 6 26 17l1 4 3 1c9 13 8 30 8 46l1 6v30l1 31v24l-1 33v29l-2 276c0 18 0 33-12 47l-2 3-2 2h-2l-1 2c-5 9-22 15-31 19l-17 8-9 5-3 1-54 25-1 2q-12 8-26 13l-11 6-11 5-8 5-12 5q-15 6-29 15l-16 7-12 6-4 1v2l-39 19-9 4-5 3-24 10v2l-3 1-17 9-14 6-7 3-2 1-15 7q-20 14-44 9l-15-6-3-1-53-26q-16-7-30-16c-12-7-12-7-25-11q-8-3-14-8-10-7-22-11l-17-9-25-12q-11-4-20-11l-15-7-16-7-2-1-10-7-14-7-7-3-3-1-21-11-16-8-38-19-20-10-2-1q-7-4-9-10l-4-5c-7-10-10-17-10-29l-1-4v-31l-1-8 1-3v-6l-1-12-1-18 1-9v-5l-2-1v-2l1-10v-2l-1-7v-8l1-5v-23l1-4H3v-9l1-4v-8l-1-5h2l-1-2-2-8 2-2v-6l-2-1 2-4H2l1-3 1-6-2-2 1-3 1-3-2-3v-14l2-4-2-1 1-3v-7l-1-9v-9l1-5h2l-3-2v-7h4l-2-4-2 1v-8l-1-5 1-4h2v-4l-2-1v-14h2l-1-1q-3-5-2-11v-3q-1-9 3-17v-5l-2-1v-16h2v-3H2c-1-8-1-8 1-12l-1-3 2-5-2-1h2l-2-3 1-5-2-1-1-3 2-3v-10l1-8 1-11q0-15 5-29l1-10 4-4 2-3 11-8 9-7c18-13 18-13 27-13l1-3h2l5-3 6-2 4-2 1-3h2l4-1 6-3 4-1 1-2q5-4 11-5l1-3h2l3-1 1-2h4l5-2 2-1 7-2 1-3 1-3 7-2 4-3 4-2 2-1q4-2 9-2t9-3h2v-2l2-1q4-1 5-5h2v-2l4-2 2 1v-2q6-4 14-5c8-1 8-1 15-4v-2h3l1-2h2l2-4 2 1 1-2q3-6 11-7l8-5v2l3-1 6-2v2l2-1 3-2 2-2 7-1v-5l2-1 1-2 3-1 5-5 7-2v2l2 1v-3l9-1 2-2v2l11-5 5-2v-2h-3v-2h6l1-5 11-1v-2l4-5 7 3 1-2v2l7-3 2-1 8-4 5-5 1-2 1-2 3 2 6-7h3v2l6-2v-2l10-2 10-4 2-1 11-5c13-7 27-3 40 3m-46 9-3 1v2l-3 1-9 4v3h-2l-7 3q-6 4-13 5l-10 5-2 1-3 3-7 3c-5 1-5 1-9 4l-27 13-3 1-2 1-1 3-5 2-5 2q-6 4-14 5-7 2-13 6v2h-2l-5 3-9 5-5 3-6 2q-9 3-16 8l-11 5-11 6-8 3-4 2-2 1-2 1-4 2v2h-3l-8 4-10 5-13 7-7 3-8 4-15 6-9 5-7 4-20 10-22 11q-6 2-10 6l-16 7q-10 5-16 14l-1 2-3 6h-2q-4 8-3 15v51l-1 39v368q-2 19 10 33l9 7 17 9 2 1v2l4 2 3 1 4 1 1 3 4 2h3l8 2 1 3h4v2h4l11 5h3l1 3 6 2 13 8q6 4 15 7 17 7 33 16l7 3 1 3q4 3 9 3l8 4 5 2 16 8 14 7 1 3 6 3 3 1 7 2v2l2 1h2l2 1 3 3 8 3h3l2 1v2q9 5 19 7l2 1 1 3h2v2l8 2v2l3 1 24 11h5l1 3 4 2 2 1 2 1 2 1 11 4 6 4 16 8 6 3 14 7 9 4q18 9 38 5l10-5 7-3 9-5 16-7 3-1 1-3h2q5 0 8-4l7-4 24-10 10-6 6-3 10-6q7-5 16-8l13-6 23-12 7-3 11-7 9-4 3-2 9-2v-2h3l1-2 5-2 20-9 5-2q8-2 14-6l3-2 9-6 12-5 15-7 8-5 5-2 10-5 6-2 11-5v-2h2l6-3 7-3v-2h2l8-5 10-4 6-4v-2l2-1c12-2 17-6 24-16q6-9 5-19V580l1-57V247q1-16-6-30h-2l-1-2-7-7-2-2-6-3-14-6-22-12-24-12-2-1-4-1-1-3q-4-2-9-2l-1-3-23-10-5-3-6-2-8-4-12-6-5-3-8-5q-11-3-20-9l-2-1-8-5q-4-3-9-3l-1-3-7-3-16-8-9-4-13-6-4-1-1-3-5-2-17-8-17-8-9-5-12-7-7-3-11-5-7-4-9-3q-9-3-16-9l-20-10-15-7-3-2c-11-4-21 0-31 4"/>
  <path fill="#c3aa94" d="m310 525 2 1-2 3q-5 9-5 21v112q-1 17 8 29 0 4-4 8-4 6-4 11v124l1 3 1 16h2l-1 3-5-8-2 1q-10 2-21-2l-2-4-6-2-9-5-5-2-3-2-29-14-31-16c-24-12-24-12-29-23l-1-18v-23l4-109 5-2 2-3q9 1 16 5l3 2 72 37 8 4q13 8 27 4 0-5-3-9V537l2 1 3-5 2-3z"/>
  <path fill="#db9e76" d="m176 460 9 4 4 2 78 40 3 1 7 3q15 6 21 19l1 14 1 111v10q0 4 3 8l-1 5q-14 4-28-4l-29-15-2-1-3-2-10-5-40-20-3-1q-14-7-20-21-2-8-1-17V481l-1-4q0-8 5-15z"/>
  <path fill="#ef9b76" d="m46 563 4 2 2 1 46 24 24 13 19 9 3 2q12 5 16 18 2 7 1 15v94l1 10-1 3q1 13 5 24c-15 1-25-3-38-10l-17-9-44-22-2-1-17-8q-10-4-15-13l-2-3q-2-5-2-11V583c0-16 0-16 4-21q7-2 13 1"/>
  <path fill="#d1c964" d="M312 530q9 2 16 7l80 40c17 9 17 9 21 17l1 3q3 5 2 11v122c0 6 0 6 2 11l8 4 13-5 18-10 2-1 38-19 3-1 11-6 3-1 2-1h5q-4 6-11 9l-2 1-28 13-51 23a43 43 0 0 1-34-4l-3-1-34-18-11-6-3-1-26-13-4-2-8-4-2-1q-10-5-14-16-2-10-2-22V553c0-17 0-17 3-22z"/>
  <path fill="#f1976d" d="m45 231 11 6 3 1 16 9 4 1 53 27 3 1 8 4 2 2q11 6 16 17v16l1 90v14q0 9 2 16v7q-10 3-20-3l-3-1-3-1-9-5-8-4-2-1-12-6-39-20-13-6c-11-6-20-10-25-22l-1-16V249c0-13 0-13 4-18q6-3 12 0"/>
  <path fill="#d3ca66" d="M312 699q8 0 14 5l7 3 16 9 25 12 10 5c43 21 43 21 47 32l1 9v7l5 133-6 1h-3q-15-1-28-10v-1l-3-1-4-1-4-1-4-3-1-2-5-2-3-1-2-1v-2h-2l-7-4q-6-4-13-5l-6-3v-2l-4-1v-2h-9q-5-1-7-5v-2l-6-2v-2h-2l-6-3-2-2-1-1v-3h-2l-3-19V714c0-7 0-15 8-15"/>
  <path fill="#c6e3c3" d="M432 163q10-1 18 3l4 3 3 1 10 5 11 6 62 32c20 10 20 10 23 17v2l2 1-3 1q-11 3-20 8l-33 17-47 23-2 1-8 5q-6 3-14 2h-2q-14-1-26-8l-3-2-20-10-25-12-44-23-3-2-4-3v-6q6-6 13-9l3-2 74-38 9-4 5-3 3-1q6-3 14-4"/>
  <path fill="#c7e4c3" d="m586 96 6 3 3 1 34 17v2l6 1v2l2 1 13 5 3 1 18 10 10 5c15 8 15 8 18 14v6l-3 1-43 22-44 22-17 9q-12 6-26 2l-8-3-3-2-13-6-3-1-35-19-3-1-31-16-3-1-7-4-2-1c-6-3-6-3-8-6v-6l14-9 6-3 15-8 17-8 41-21c27-15 27-15 43-9M452 28l4 2 15 8 6 3 4 1v2l4 1q4 0 8 3l13 8 2 1 11 5 21 11c18 9 18 9 21 15l1 3-8 4-40 20-58 29q-16 10-34 4l-14-7-3-1-53-27c-38-19-38-19-42-23q0-4 2-7 4-5 10-7l21-10 13-7 9-5 17-8 2-1 2-1 21-11 2-1 5-3q19-9 38-1"/>
  <path fill="#f2ec8a" d="m727 165 24 14 42 21 21 11c18 9 18 9 22 18l2 13v116q1 15-8 26l-5 3v-2l2-2q8-6 8-17v-14l1-109v-7l-3-4q-6-3-13 1l-2 1h-3v2l-2 1-50 25-21 10c-23 11-23 11-39 30l-1-3-2-3-1-4q-6-8-16-12l-3-2-45-22-51-28q-1-4 3-8l30-16 39-19 33-17 3-1 2-1 2-1c9-4 22-4 31 0"/>
  <path fill="#c8e4c3" d="m315 98 2 1 25 13 2 1 52 27 12 6 3 1q8 4 12 12v2l-2 1-19 8-26 14-27 13-31 16-3 2-18 4h-2c-13 0-27-10-39-16l-9-5-2-1-20-10-3-2-13-6c-33-17-33-17-36-21v-6q9-8 20-12l38-19 26-13 5-1v-2l3-2 3-1 14-6q17-7 33 2"/>
  <path fill="#f1ec89" d="M568 232q18 0 32 11l11 6 2 1 49 25 9 4 10 5q10 5 16 15l-1 4-2-2q-10 0-18 5l-12 6-40 20-10 5-28 14q-12 5-19 17l-1 5-7-12q-10-11-25-16l-12-6-64-33-13-8v-5q10-10 24-15l33-17 13-6 15-9 8-3 7-3 2-1 5-3q7-3 16-4"/>
  <path fill="#e5d2be" d="M298 230h3q14 4 27 13l3 1 26 13 38 19c23 12 23 12 27 19l-1 4-5 3-3 1-2 1-10 5-2 1-81 40-2 1q-13 7-28 3-7-2-15-7l-4-2-3-1-9-5-11-5-56-29-3-1q-10-6-19-3 3-12 15-18l23-12 59-30c23-12 23-12 33-11"/>
  <path fill="#fdba92" d="m182 168 36 19 2 1 32 16 3 2 7 3c18 9 18 9 23 17v2l-2 1-64 33-25 12-3 1-8 4-3 2q-8 5-20 5h-3q-11-1-20-7l-16-9-2-1-72-35q-6-4-9-10 0-5 3-8l9-5 5-2 2-2 35-17 46-24 8-3 2-1c12-5 23 0 34 6"/>
  <path fill="#e2d3c2" d="M426 301h8q9 0 17 4l31 16 29 15 13 7c29 14 29 14 35 23l1 6-3-2h-9l-11 5-3 2-10 5-53 27-2 1-8 4c-14 6-14 6-24 17l-2 2-3 6-4-6q-9-13-24-19l-17-8-10-5-52-26c-8-4-8-4-16-5l-4 2 1-5 1-2q3-8 10-11l3-2 4-1 45-23 43-22z"/>
  <path fill="#ccf9f8" d="M460 6v2l2 1 15 5 10 3v2h2l12 5 1 3 4 2 1 2h4v2c6 3 6 3 13 4v2l13 2 1 3 5-1 2 3h3l1 3-1 2h2l5 3q5 4 11 6v2h2l2-1h3l4 1 1 2 1-2 1 2 5 1v2l6 2v2l3 1 1 4 3-1 5 4 9 4h3l8 2v2l4 1 1-2 1 2c5 5 5 5 11 8h2v3l4-1v3h4l3 1h2l1 2h2l2 3q3 3 7 2v2h2q8 1 13 6l4 1q5 2 8 6l12 7v-2h2l1 3h6v2l6 2v2l7 1v2h3l1 2h2l5 4 2-1v2h4l4 3 5 2 8 4h2v2l5 1v2h2v2h4l3 3 5 1v2l2 1h3l3 1 4 3 3 1h3l1 2 4 1v2h2l6 3 2 2 3 3 4 1q15 6 26 17l1 4 3 1c9 13 8 30 8 46l1 6v30l1 31v24l-1 33v29l-2 276c0 18 0 33-12 47l-2 3-2 2h-2l-1 2c-5 9-22 15-31 19l-17 8-9 5-3 1-54 25-1 2q-12 8-26 13l-11 6-11 5-8 5-12 5q-15 6-29 15l-16 7-12 6-4 1v2l-39 19-9 4-5 3-24 10v2l-3 1-17 9-14 6-7 3-2 1-15 7q-20 14-44 9l-15-6-3-1-53-26q-16-7-30-16c-12-7-12-7-25-11q-8-3-14-8-10-7-22-11l-17-9-25-12q-11-4-20-11l-15-7-16-7-2-1-10-7-14-7-7-3-3-1-21-11-16-8-38-19-20-10-2-1q-7-4-9-10l-4-5c-7-10-10-17-10-29l-1-4v-31l-1-8 1-3v-6l-1-12-1-18 1-9v-5l-2-1v-2l1-10v-2l-1-7v-8l1-5v-23l1-4H3v-9l1-4v-8l-1-5h2l-1-2-2-8 2-2v-6l-2-1 2-4H2l1-3 1-6-2-2 1-3 1-3-2-3v-14l2-4-2-1 1-3v-7l-1-9v-9l1-5h2l-3-2v-7h4l-2-4-2 1v-8l-1-5 1-4h2v-4l-2-1v-14h2l-1-1q-3-5-2-11v-3q-1-9 3-17v-5l-2-1v-16h2v-3H2c-1-8-1-8 1-12l-1-3 2-5-2-1h2l-2-3 1-5-2-1-1-3 2-3v-10l1-8 1-11q0-15 5-29l1-10 4-4 2-3 11-8 9-7c18-13 18-13 27-13l1-3h2l5-3 6-2 4-2 1-3h2l4-1 6-3 4-1 1-2q5-4 11-5l1-3h2l3-1 1-2h4l5-2 2-1 7-2 1-3 1-3 7-2 4-3 4-2 2-1q4-2 9-2t9-3h2v-2l2-1q4-1 5-5h2v-2l4-2 2 1v-2q6-4 14-5c8-1 8-1 15-4v-2h3l1-2h2l2-4 2 1 1-2q3-6 11-7l8-5v2l3-1 6-2v2l2-1 3-2 2-2 7-1v-5l2-1 1-2 3-1 5-5 7-2v2l2 1v-3l9-1 2-2v2l11-5 5-2v-2h-3v-2h6l1-5 11-1v-2l4-5 7 3 1-2v2l7-3 2-1 8-4 5-5 1-2 1-2 3 2 6-7h3v2l6-2v-2l10-2 10-4 2-1 11-5c13-7 27-3 40 3m-60 9L295 67l-18 9-46 24h-2l-42 21-9 5-4 2-24 11-1 1-99 49c-17 9-31 17-39 36l-1 13v199L9 692q0 15 5 29l1 3q4 8 11 13l2 2 8 5 3 2 4 2 6 3 2 1 55 28 131 66 2 1 26 13 33 17 10 5 25 12 73 37q19 10 40 4l26-12 54-27 28-14 11-5 43-21 22-11 9-4 40-21 55-27 19-9 11-5 4-3 10-4 2-1 41-20q23-9 33-31l2-6 1-3V504l1-257q1-22-14-40-11-10-24-15l-12-6-22-11-10-5-138-70-28-14-7-3-33-17-43-21-12-6-69-34-2-1c-15-5-31 5-44 11"/>
  <path fill="#d0c366" d="m583 226 1 1q9 7 19 11l10 5 2 1 36 18 36 19 3 1q9 7 13 18v121l1 4q0 9-5 17 16 1 31-7l49-25 37-19 2-1q4-2 9-1l2 1v3l-2 1-20 8-2 2-82 40q-12 5-18 17-2 8-2 17v53l1 62q0 10-5 17 13 3 24-3l3-2 8-4 11-5 83-42 2 6-2 1-96 47c-17 8-17 8-27 24q-2 8-1 15l-1 15v108h-4v-2l-1-119q1-10-5-18-9-1-16 4l-3 2-9 4-46 23-2 1-23 11c-16 7-16 7-26 20l-1 9v122q0 10-5 17h-1l1-126q0-11-7-20l-5-4 3-5 7-11h3c15 2 27-5 40-12l3-1 38-20 36-17 2-1q8-3 12-11l1-2q3-5 2-12V470l-2-8q-9 0-17 4l-2 1-38 19-38 19-26 15h-2l-1 2-2 4q-5 10-3 20l-1 53v68q0 3-3 5V551q0-13-9-24l-1-2 5-10 2-3 1-2 2 1h6q9 1 16-4l5-2 2-1 10-5 5-2 33-17 2-1 40-20 3-1q9-5 13-15v-15l1-116q1-11-6-19-10-8-23-14l-93-46 6-2z"/>
  <path fill="#b8b097" d="m309 84 2 1v2q0 3 2 5l2 1 3 2 3 1 3 1 7 4 3 2 10 5 66 33 2 1 5 2q15 9 32 2 12-3 22-10l63-32 12-6 4-2 2-1 2-1q4-2 7-1l2 3-3 1-66 34-3 2-29 14-3 1-3 2-5 4v6q12 9 25 14l13 6 2 2 67 34 2 1q7 3 13 3h14l-2 5-2 3-3 4h-17l-1-3c-6-9-19-14-28-18l-38-20-2-1-33-17c-12-7-12-7-25-9h-3q-13 2-23 8l-3 1-62 32-2 1-18 9-2 1q-7 3-11 8v6l10 6 38 19 2 2 48 24q14 8 29 8h9l-5 12h-4q-17 0-31 8l-10 6-2 1-72 35-2 1q-10 5-15 15l-2 8-1 3v36l-1 89q-4-5-4-12V381q-1-13-8-23l-2-2-1-2h10q14-1 26-8l3-1 10-5 67-34 3-1 14-7q0-5-4-8l-19-11-4-2-26-13-2-1-43-22-2-1-8-4-2-1-14-4h-11l-2-6q-9-8-21-14l-84-43-3-1q-7-3-7-7l2-4 2-2 1 2q1 5 7 7l1 1 19 9 10 5 2 1 22 12 35 18 6 3q15 8 31 4 12-4 23-10l3-1 61-32 15-7 4-2q5-3 10-3c-6-12-18-16-30-21l-28-15-29-15-31-16z"/>
  <path fill="#7deae2" d="M436 3h5v1h-8l-10 4h4q20-1 37 10l8 4c11 5 11 5 14 9l9 4 4 1 6 2q4 1 6 4l7 4-4 1-5-4-10-3q-9-3-16-9l-20-10-15-7-3-2q-12-4-25 2l-3 1-6 1v2l-9 5h-2l-1 3-6 4h-2q-7 4-14 5l-8 4-5 2-2 3-7 3c-5 1-5 1-9 4l-27 13-3 1-3 2q-11 10-24 11l-10 5h-3v2l-5 1-1 3-14 7-2 1-5 2q-9 3-16 8l-11 5-11 6-8 3-12 5v2l-2 1q-7 2-13 6l-12 5-7 5-7 3-8 4-15 6-9 5-7 4-20 10-22 11q-6 2-10 6l-16 7q-10 4-15 13l-3 5-1 2-1 1h-2l-2 18v48l-1 134v273q-2 19 10 33l5 4-4 1-5-5-2-1c-5-5-7-15-7-22l-1-15V228c-3 3-2 12-2 16v52l-1 212v201h-1V247c0-16 1-28 12-40q12-10 27-17l2-1 32-16 17-9 44-22h2l90-45 97-48 32-16 26-13 12-6c23-12 23-12 33-11"/>
  <path fill="#b6edeb" d="M23 737q7 2 13 6l35 18 48 25 81 41 3 1 34 17 2 1 26 13 33 17 10 5 25 12 73 37q19 10 40 4l26-12 54-27 28-14 11-5 43-21 22-11 9-4 40-21 55-27 19-9 11-5 4-3 10-4 2-1 38-19 3-2 3-1 2-1 5-1q-9 9-21 14l-11 5-2 1-4 2-9 5-3 1-12 6-2 1-12 6a106 106 0 0 1-28 12l-1 2q-12 8-26 13l-11 6-11 5-8 5-12 5q-15 6-29 15l-16 7-12 6-4 1v2l-39 19-9 4-5 3-24 10v2l-3 1-17 9-14 6-7 3-2 1-15 7q-20 14-44 9l-15-6-3-1-53-26q-16-7-30-16c-12-7-12-7-25-11q-8-3-14-8-10-7-22-11l-17-9-25-12q-11-4-20-11l-15-7-16-7-2-1-10-7-14-7-47-23-38-19-20-10-2-1q-5-3-8-8z"/>
  <path fill="#70e0dc" d="M14 227h1v466q0 14 4 27l1 5 2 1 4 4 6 3 8 4q7 6 15 8v2h2l9 4 1 2 4 2h3l9 3v3h4v2h2l5 3 9 4 6 3v2l4 1-1 5 3 1 12 6 4 2 42 21 88 44 2 1 89 45 2 2 49 24 2 1q9 5 20 7v1c-11 1-20-5-30-10l-18-9-52-27-27-13-10-5-35-18-27-14-3-1-178-90-3-2-7-3-2-1q-15-10-21-26l-2-23v-40l1-232V244c0-14 0-14 3-17"/>
  <path fill="#b1b59c" d="m309 84 2 1v2q0 3 2 5l2 1 3 2 3 1 3 1 7 4 3 2 10 5 66 33 2 1 5 2q15 9 32 2 12-3 22-10l63-32 12-6 4-2 2-1 2-1q4-2 7-1l2 3-3 1-66 34-3 2-29 14-3 1-3 2-5 4v6q12 9 25 14l13 6 2 2 67 34 2 1q7 3 13 3h14l-2 5-2 3-3 4h-17l-1-3c-6-9-19-14-28-18l-38-20-2-1-33-17c-12-7-12-7-25-9h-3q-13 2-23 8l-3 1-63 32v-2l2-1 1-5 62-31 4-2q5-3 10-3c-6-12-18-16-30-21l-28-15-29-15-31-16z"/>
  <path fill="#d7b89a" d="m310 525 2 1-2 3q-5 9-5 21v112q-1 17 8 29 0 4-4 8-4 6-4 11v124l1 3 1 16h2l-1 3-5-8-2 1q-10 2-21-2l-2-4-6-2-8-4-3-1-5-3h7l2 1 2 1v2l6 1v2h2l6 4q7 3 14 2l6-2v-2l-2-28V708q0-12-7-20-11-8-23-13l-9-5-66-33-3-2-17-7 2-4q9 1 16 5l3 2 72 37 8 4q13 8 27 4 0-5-3-9V537l2 1 3-5 2-3z"/>
  <path fill="#d0f4f4" d="M7 234h1l1 140v340H8v-7l-1-3-1-7v-29l-1-8 1-3v-6l-1-12-1-18 1-9v-5l-2-1v-2l1-10v-2l-1-7v-8l1-5v-23l1-4H3v-9l1-4v-8l-1-5h2l-1-2-2-8 2-2v-6l-2-1 2-4H2l1-3 1-6-2-2 1-3 1-3-2-3v-14l2-4-2-1 1-3v-7l-1-9v-9l1-5h2l-3-2v-7h4l-2-4-2 1v-8l-1-5 1-4h2v-4l-2-1v-14h2l-1-1q-3-5-2-11v-3q-1-9 3-17v-5l-2-1v-16h2v-3H2c-1-8-1-8 1-12l-1-3 2-5-2-1h2l-2-3 1-5-2-1-1-3 2-3v-10l1-8 1-11q-1-11 3-20"/>
  <path fill="#83e8e0" d="M41 195v2l-4 3h2l8-2q-5 5-11 7l-8 10-2 3-3 4h-2l-2 18v48l-1 134v273q-2 19 10 33l5 4-4 1-5-5-2-1c-5-5-7-15-7-22l-1-15V228c-3 3-2 12-2 16v52l-1 279v134h-1V247c0-16 1-28 12-40 13-12 13-12 19-12"/>
  <path fill="#c2f1f0" d="m829 745 2 1q-9 9-21 14l-11 5-2 1-4 2-9 5-3 1-52 25h-2l-1 2q-12 8-26 13l-11 6-11 5-8 5-12 5q-15 6-29 15l-16 7-12 6-4 1v2l-39 19-9 4-5 3-24 10v2l-3 1-17 9-14 6-7 3-2 1-15 7q-20 14-44 9l-15-6-3-1-23-11-3-2-13-7 2-1 7 3 3 2 3 1v2l6 1v2h3l9 3 6 2 12 5c9 5 24 4 34 1l20-9 60-30 28-14 11-5 43-21 22-11 9-4 40-21 55-27 19-9 11-5 4-3 10-4 2-1 44-22 2-1z"/>
  <path fill="#78e6e1" d="m607 849-6 3-3 2-6 1v2l-8 5q-9 5-19 7v2l-3 3-2 1v2l2-1h5l-24 12-3 2-75 36-3 2-9 4-3 1q-7 4-16 3h-2q-16-1-29-8l-3-2-9-4-3-1-13-7 1-4 2-1-2-1-16-7v-2h-7v-2l-2-1-11-5-2-1-6-3-2-1v-2l6 1 1 2 8 4 2 1 15 6v2l3 1 9 4 6 2 6 4 14 7 9 4q18 9 38 5l10-5 7-3 9-5 16-7 4-3 4-1 4-1 2-4 5-2 17-8 9-3 10-6 6-3 10-6q7-5 16-8l13-6 8-5 3-2z"/>
  <path fill="#6bf0eb" d="M14 227h1v466q0 14 4 27l1 5 2 1 5 5v3q-4 0-6-3c-8-13-10-23-10-39v-40l1-217V234q0-6 2-7"/>
  <path fill="#d0b8a3" d="m422 297 2 4-3 1-53 27-2 2-42 21-4 1q-9 5-13 14l-2 8-1 3v36l-1 89q-4-5-4-12V381q-1-13-8-23l-2-2-1-2h10q14-1 26-8l3-1 34-17 17-9z"/>
  <path fill="#83ebe3" d="M436 3h5v1h-8l-10 4h4q20-1 37 10l8 4c11 5 11 5 14 9l9 4 4 1 6 2q4 1 6 4l7 4-4 1-5-4-10-3q-9-3-16-9l-20-10-15-7-3-2q-12-4-25 2l-3 1-6 1v2l-9 5h-2l-1 3-6 4h-2q-7 4-14 5l-8 4-5 2-2 3-7 3c-5 1-5 1-9 4l-27 13-3 1-3 2q-10 9-23 11v-2h2l2-1 1-3 5-2 1-2-7 1 9-6 3-1 3-2 3-1 9-5 9-4 73-36c23-12 23-12 33-11"/>
  <path fill="#ccc372" d="m444 295 2 2 10 7 2 1 23 12 8 4 2 1 34 17 13 7 3 2 6 3q10 4 14 12l2 3q4 9 3 18v25l-1 84v6q0 5-3 8h-1V381q0-11-7-20-9-8-22-13l-17-9-3-2-10-5-30-15-31-16h2z"/>
  <path fill="#deb586" d="m310 525 2 1-2 3q-5 9-5 21v112q-1 17 8 29 0 4-4 8-4 6-4 11v124l1 3 1 16h2l-1 3c-6-7-5-17-5-26l-1-119 1-4v-3q0-5 4-8h2l1-6h-2q-5-8-7-18l-2-5V537l2 1 3-5 2-3z"/>
  <path fill="#e9b38f" d="m189 461 11 5 2 1 77 39 2 1 2 1 2 1q5 2 10 1c7-1 7-1 10 2l4 7 3 4 2 2h-2q-4 2-6 7l-3 4-2 3q-3-3-3-7-4-13-16-18l-6-3-3-2-60-30-15-7-2-1q-6-1-6-6v-2z"/>
  <path fill="#7febe5" d="M818 193c10 1 22 8 28 16 10 13 10 25 10 41v124h-2l-2 2v-2l-1-131q1-13-6-24v-2h-2l-3-3-8-7v-2l-2-1-10-5-2-1z"/>
  <path fill="#ccc6a6" d="m796 189 16 7 29 17 2 2v2h2q8 16 6 33v263l-1 74v119q1 6-3 10v-3l1-15V242q1-13-7-24l-2-1-2-3-6-3v-2l-2-1q-8-2-14-6v-2l-3-1-8-4-4-1-3-2z"/>
  <path fill="#b1b8a0" d="m312 231 98 50a55 55 0 0 0 32 8h6l-5 12h-19l-3-7q-6-7-15-11l-2-1-36-18-2-1-37-19-3-1-6-3-3-2-2-1-5-4h2z"/>
  <path fill="#d6bd9b" d="m492 37 12 3 3 2 5 3 8 3q7 2 13 6l13 7 5 4 6 2 14 7q9 6 20 9l2 1 1 3 4 2q4 0 7 3l7 3q6 1 10 4l8 4 2 1 12 6v2l3 1 11 5 2 1 8 5 10 5c11 3 11 3 15 9l-15-5-43-23-33-16v-2h-2l-11-5-3-1-5-3v-2l-8-2v-2h-4v-2h-2q-14-4-26-12l-21-11v-2l-3-1q-8-1-14-6l-7-3z"/>
  <path fill="#75ece4" d="m468 15 32 16 26 13 3 1 13 7-1 4-6-2-9-3q-7-2-12-7l-7-4v-2h-4q-9-1-16-6v-2l-2-1-12-6-5-2-9-5q-6-4-14-6l-2-1h-21c10-15 35 0 46 6"/>
  <path fill="#e8b88e" d="M846 227q4 8 3 17v448c0 27 0 27-7 37l-3 3-8 4 5-5a50 50 0 0 0 11-34V288z"/>
  <path fill="#76e9e4" d="M280 861q8 0 15 5l1 3h2l6 2v2l4 1 14 7 8 3v2l2 1q7 2 13 6l2 1 6 3v2h7v2l3 1 9 4 7 3-4 4-17-7-3-2-77-39z"/>
  <path fill="#e6b991" d="m481 42 14 5 5 3 2 1 9 5 3 1 6 2v2l4 1v2h3l9 4v2h4v2h3l5 2v2h2q9 4 14 13v4h3c16-2 16-2 23 2l4 2 12 6v2h2l10 5 4 2 2 1 29 14v2h2l10 4v2h2l9 4 3 1 3 2 6 3v2h4l4 4v2l3 1 2 10h-2l-1-4q-3-9-14-14l-13-6-7-4-29-14v-2l-6-1v-2h-3l-7-4-5-2-14-7-8-4q-11-5-24-5h-4q-3 0-5-3l2-1q-1-6-7-10l-18-9-27-14-28-14z"/>
  <path fill="#bec8a9" d="m29 210 2 1-1 1-2 2-1 2-4 6h-2l-2 15v200l-1 258q-1 14 6 27l1 2-1 2-2-4-2-2q-4-7-3-15V233q0-6 3-13h2l1-3q2-4 6-7"/>
  <path fill="#9eddc7" d="M16 228h1v468q-2 16 7 29l9 7-4 1-5-5-2-1q-6-7-6-15z"/>
  <path fill="#deb68f" d="m21 222 1 4-1 2-1 10v465l2 10v7q-5-8-5-17v-50l1-63V235q0-6 3-13"/>
  <path fill="#f3a57a" d="m161 305 2 2 2-1v131l-4-14z"/>
  <path fill="#f0e393" d="m553 525 4 6-1 2-2-1q-4-1-9 1l-3 2-7 3-5 1v2l-2 1-16 6-2 2-10 6-10 4-2-1-5 2-1 1-6 3-13 6-2 1-10 5q-15 8-32 3l-16-8h6l4 2a34 34 0 0 0 20 6c13-1 26-10 38-16l47-23 2-2z"/>
  <path fill="#f7d883" d="M827 561h6q6 6 5 14v7l1 116q0 13-7 23-6 6-12 8l-45 23-3 1-13 5q4-5 10-7l4-2 3-1 25-12 12-6 2-1c12-6 12-6 19-17q2-8 1-17V580l-2-16-6-2z"/>
  <path fill="#d6c17b" d="M305 536v126q-1 17 8 29 0 4-4 8-4 6-4 11v124l1 3 1 16h2l-1 3c-6-7-5-17-5-26l-1-119 1-4v-3q0-5 4-8h2l1-6h-2l-2-4-2-3q-3-11-2-24v-22l1-81v-4q0-9 2-16"/>
  <path fill="#d0c2a5" d="M250 843q13 1 23 8l6 3v2h3l10 5 3 2 3 3 14 4v2l2 1q8 2 14 6l27 13v2h2l8 4 7 3v2h2l6 2v2l-12-4-3-2-4-3-5-1-11-5-2-1-2-1-2-1-3-4h-2q-8 1-14-5l-16-7v-2h-2l-6-2v-2l-3-1v-2l-2-1q-10-1-17-6l-2-1v-2l-2-1q-8-1-14-6l-6-2z"/>
  <path fill="#7aeae0" d="m608 87 10 3 2 2 3 1 6 3 3 2 9 4 27 14 22 11-3 3-5-1-1-3h-3q-9-2-16-7l-7-3c-10-3-10-3-12-5q-4-4-9-5l-14-7-9-4h9v-2l-3-1-9-4z"/>
  <path fill="#79e8e5" d="m629 839 2 1v3l-8 3-1 3-6 3-3 1-7 4-47 21 1-4 4-1v-2l3-3 4-1 14-7 7-3v-2l2-1 13-5 16-7z"/>
  <path fill="#dcc870" d="M565 702h1v126q1 9-4 16h-1l1-82v-3q0-5 2-9v-11z"/>
  <path fill="#79ede5" d="m217 108 2 1-3 4-2 1-2 2-7 4-8 4-6 2v2h-2l-17 7-12 5-3 3-4 2h-3l-4 1-1-4 66-31 3-2z"/>
  <path fill="#d3c2a3" d="M789 757q-3 5-8 6h-3v2l-28 13-3 1-4 3-14 6-13 6-3 1-16 10q-7 5-16 7l-3 2-11 3 1-2h2v-2l11-6 12-6 32-15 5-1v-2l13-6 15-7 4-1v-2l4-1q5-1 8-5 7-5 15-4"/>
  <path fill="#d7c172" d="M537 701q-4 6-11 9l-2 1-28 13-25 12c-20 9-20 9-27 10q6-5 14-8l39-20 28-14 3-1 2-1 2-1z"/>
  <path fill="#d1c2a1" d="m516 893-8 4-8 5q-2 3-5 2h-2l-1 3-6 2q-7 2-12 6-15 9-31 13l-2 1q-22 1-42-11l-8-3-11-7 3-1 2 2 11 4 3 1 5 3v2h3l5 3q22 8 42 0 6-2 11-8l10-4h2l7-2 1-2q3-3 9-4v-2l6-3 3-2q7-4 13-2"/>
  <path fill="#e7b690" d="M451 24v2h2q7 2 10 5l12 7q6 2 6 4l-25-11-6-3-2-1-12-2h-3q-13 1-24 8l-6 3-2 2-11 5-2 1-4 2-10 5-4 2-2 1-13 7-3 1-3 2-5 1v-2q12-8 26-14l19-10 3-1 2-1 6-1v-2l5-2 2-2 12-5q16-7 32-1"/>
  <path fill="#d9ba97" d="m290 79-2 1-3 1-1 3-7 4-3 1-29 14-5 3-10 5-7 4q-5 3-11 3v2l-4 2-2 2-6 2-9 4q-10 6-20 8 3-4 8-6l3-2 9-2v-2l12-6 17-8 18-10 12-4 9-5 4-1 8-6 5-1v-2l5-3 2-1z"/>
  <path fill="#7ee7e5" d="m607 849-6 3-3 2-6 1v2l-8 5q-9 5-19 7v2l-3 3-2 1v2l2-1h5l-23 12-2 1-10 3-3 1h-2l3-4h2l1-2q2-4 7-5l3-2 3-2 5-2 2-2 7-4q7-5 16-8l13-6 8-5 3-2z"/>
  <path fill="#ccc3a1" d="M693 138q10 2 19 8l11 5 2 1 5 2q7 2 13 6l2 1 6 3v2h3q4 0 7 3v2l3 1 16 7 16 9h-7l-9-5-7-3-9-5-33-16-20-10v-2h-3l-9-4-4-2-2-1z"/>
  <path fill="#f5d981" d="M835 229q4 6 3 13v116q1 14-8 26l-5 3v-2l2-2q6-5 8-14V236l-1-5z"/>
  <path fill="#e4bc9b" d="m41 737 11 4 3 1h2l6 3v2h4v2h2l5 2 8 4 33 17 10 4v3h2l8 4 2 1 2 1h-7l-2-2-3-1-7-5-15-7v-2h-3l-5-2q-4-4-10-3v-2h-4l-1-3-6-2q-6 0-10-3v-2l-3-1-8-3v-2h-2q-8-2-12-8"/>
  <path fill="#75e9e2" d="m91 763 14 5 1 2 6 2 13 8q6 4 15 7l13 6 2 1 11 6h-7l-3-1-3-2-6-4-2-1-2-1-2-1-5-2-1 4-13-6-2-1-6-3-2-1 1-5-4-1v-2h-2q-9-3-16-10"/>
  <path fill="#efbf7b" d="m836 397 3 3v16l1 105-1 18-2 1z"/>
  <path fill="#79ebe2" d="M761 170q10 2 18 7 6 5 13 5l1-2-4-2 12 5 4 2 2 1 12 6-1 6 3 1q4 1 7 5l-10-3-2-2-3-1-22-12-25-12-3-2-2-1z"/>
  <path fill="#d2e0ad" d="M684 147q7 2 13 8 3 4 2 9l-3 1-43 22-44 22-17 9-6 2 1-3 6-1v-2l3-1 15-8 11-5 6-4v-1h2l21-10 11-6 22-11 2-1 4-1q5-2 6-5l-1-5-11-8z"/>
  <path fill="#d8c1a2" d="M139 786q8 0 15 5l2 1 11 6v2h3q6 1 10 5l7 3 10 5 2 1 16 8 2 1 8 4v2h3l6 3 3 1 4 4 5 2 2 1 2 1v2l-11-4-3-1-3-4-4-2-14-7-20-9-5-3-3-1-7-3v-2l-3-1-9-5-22-10-2-1-2-1z"/>
  <path fill="#80e7e3" d="m664 821-8 2-1 3h-2l-1 3-6 4-1 2 2-1 3-2 3-1h5l-25 13-2 1-5 2-3-1 7-4-1-2-2 1-20 7q3-5 8-5 8-3 15-8 5-4 9-5l3-2 9-1v-2h3l1-3q4-3 9-1"/>
  <path fill="#cdc568" d="M564 413h1v83q1 6-3 11h-1l1-77v-3c0-12 0-12 2-14"/>
  <path fill="#e6b58d" d="m308 85 1 2-3 6-10 1q-9 0-17 4l-8 4-2 1-7 2v2l-3 1-35 17-3 2-20 9v-3l2-1 12-6 9-4 13-7q9-5 20-7l1-3 10-5 6-3q12-8 26-6l5-1z"/>
  <path fill="#77ece4" d="M746 158q23 6 43 19v2l4 1-1 3q-10-2-18-7l-20-9-3-1-1-2-4-2z"/>
  <path fill="#86eae0" d="m183 129 2 1-18 9-10 6-7 3-8 4c-12 6-12 6-18 6l-1-2-4-1 2-1 7-3 3-2 12-6 3 1v2l3-1q3-2 8-2l1-3 12-5 2-1 6-3z"/>
  <path fill="#d4bf9d" d="m167 138 2 1-3 2-4 4-7 3h-3l-2 1v2l-17 8-7 4-15 6-15 7c-5 3-5 3-8 3v2l-4-1 9-5 3-2 40-19 12-7 7-3 9-5z"/>
  <path fill="#6dede6" d="M370 30h2v2l-10 5-6 7-5 2-2 3q-6 4-13 3v2q-7 4-16 5l2-3h2v-3l39-19z"/>
  <path fill="#9eddca" d="m454 12 10 6 8 4c11 5 11 5 14 9l9 4 4 1 6 2q4 1 6 4l7 4-4 1-5-4-10-3q-9-3-16-9l-20-10-15-7-3-2q-9-3-18-1l-4 2-4-1q18-8 35 0"/>
  <path fill="#d2a489" d="M174 628h3l-2 1-6 7-1 19v107q0 12 4 25-6-4-6-11V648c0-20 0-20 8-20"/>
  <path fill="#f4e080" d="M829 392q4 0 6 3 3 5 2 11v3l1 122q1 13-8 22-8 6-18 10l-2-1c16-10 16-10 20-11l2-5 1-2q3-11 2-22V411q1-9-3-16l-4-2z"/>
  <path fill="#d3e1af" d="m562 230 1 2 2 1-3 1q-11 3-20 8l-33 17-42 21-3 1-2 1-2 1-2-1 12-7q9-3 17-9l9-4 8-4 5-1v-2l3-2 2-1z"/>
  <path fill="#b9faf9" d="M566 64q8 0 15 5l13 7v2h2q7 0 13 5l6 3 4 2 12 6v2l2 1q7 1 11 6l-10-3-4-2-2-2-14-7-48-24z"/>
  <path fill="#9dd9ca" d="m330 884 6 1 1 2 8 4 2 1 15 6v2l3 1 9 4 6 2 6 4 14 7 12 6 8 3q-9 1-19-5l-4-2v-2h-2l-14-7-10-5-11-5v-2h-7v-2l-2-1-11-5-2-1-6-3-2-1z"/>
  <path fill="#e1bc9a" d="m306 869 6 1v2l2 1q8 2 14 6l27 13v2h2l8 4 7 3v2h2l6 2v2l-12-4-3-2-4-3-5-1-11-5-2-1-2-1-2-1-3-4-5-1-10-5-2-1-2-1-2-1-5-4-4-2z"/>
  <path fill="#a8ebe8" d="m69 761 51 25 20 10 6 3v1h-8l-5-4-16-7v-2l-2-1-12-5v-2l-2-1h-3l-2-1-7-3v-2h-3l-10-5-2-1-5-3z"/>
  <path fill="#db9" d="m379 34-1 4-8 4-2 1-9 5-6 2-7 4q-11 7-23 9l-1 3-9 1q3-4 7-5l5-2q3-3 8-3l9-6 5-2 12-5q3 0 5-4l4-2 7-3z"/>
  <path fill="#d6c09e" d="m449 14 11 4 4 2 8 4q12 4 20 13l-16-7-27-13v-2q-15-2-31 0 2-3 6-4 13-4 25 3"/>
  <path fill="#ebae8b" d="M179 623q-6 6-7 5l-3 3q-2 10-2 21l-1 15v110h-1V645c-1-13-1-13 4-18l4-3 1-1z"/>
  <path fill="#efb679" d="m837 235 2 1v2l1 36v9l1 4-1 3v71q1 10-5 19l-2 1 1-2q4-12 3-25z"/>
  <path fill="#85ebdf" d="M399 24v2q-10 6-22 9l-8 4-5 2-2 3-5 2-3 1h-5l6-4 3-3q2-4 7-5l2-2 5-1v-3l4-1-1 3q8 1 15-5z"/>
  <path fill="#efe084" d="m536 706-14 8-3 1-2 2-8 3-43 20-13 6h-2l-2 1-4 1-2 1-2-2 2-1 4-1 3-1 28-13 53-25z"/>
  <path fill="#d3f6f6" d="M131 147q-6 6-14 8l-21 11-16 7h-2l-2 1 3-4h2l1-3h2l4-1 6-3 4-1 1-2q5-4 11-5l1-3h2l3-1 1-2h4l2-1z"/>
  <path fill="#6fece7" d="M847 728q-1 6-7 10l-2 2-6 3-3 1-1 3-5 2-10 3 2-6h2v-2l3-1 4-2 2-1q10-3 17-11z"/>
  <path fill="#e1d9b7" d="m452 28 4 2 15 8 6 3 4 1v2l4 1 12 6h-6l-8-5-3-1-14-7-14-7q-7-3-15-4h-3l-12 2h-7q19-10 37-1"/>
  <path fill="#c8c6a9" d="M789 757q-3 5-8 6h-3v2l-28 13-3 1-5 3-5 2-2-1q7-6 15-9l8-4 4-1v-2l4-1q5-1 8-5 7-5 15-4"/>
  <path fill="#dbbb9b" d="m380 907 9 3 10 4 5 3v2h3l5 3q18 8 38 2-5 6-13 5-20 1-38-11l-8-3-11-7z"/>
  <path fill="#83eadf" d="m89 172 1 3 3 1-21 11q-7 2-13 7l-7 2 3-3h3l1-3 5-3 3-4 5-3 3-1 3-2 3-1z"/>
  <path fill="#e4d378" d="M698 640h1l1 130h3q-1 5-5 8z"/>
  <path fill="#b5f3f2" d="M670 825v2l-4 2-63 31-3 3-5 1h-4l7-4 3-2 3-1 28-14 2-1 26-13 3-1z"/>
  <path fill="#fbda81" d="m595 838 2 1c-13 7-22 12-37 9l-1 3q-5 12-19 16l-3 2-8 4-3-1 18-10q8-2 11-9h2v-2l2-5h3q14 2 26-5z"/>
  <path fill="#d5b88f" d="M302 807h1l1 40c-9 3-9 3-15 2h-4l-7-4v-2l-2-1-12-5-3-1-5-3h7l2 1 2 1v2l6 1v2h2l6 4q7 3 14 2l6-2z"/>
  <path fill="#e0d9b5" d="m607 107 10 4 12 6v2l6 1v2l2 1 13 5 3 1 25 14 6 4c-6-1-6-1-8-3l-12-5v-2l-4-1-15-7-9-5-10-5-11-6-8-4z"/>
  <path fill="#d1f6f5" d="M157 128h5l3 1h2l-6 4-3 1q-5 5-11 6l-11 6-2 1-3-1 2-1q4-2 4-5v-2l2-1h2l3-1 4-3 4-2z"/>
  <path fill="#dbbb96" d="M693 138q11 2 21 9l5 2 8 5 22 11v2q-10-3-18-8l-20-10v-2h-3l-9-4-4-2-2-1z"/>
  <path fill="#e4b68f" d="m667 818-4 2-3 1-5 2-1 2h-3v2h-2q-7 2-13 6l-2 1-8 4c-11 7-11 7-15 7l-2-1 4-2 2-2 6-1 1-3 5-3 3-1 3-1 6-3 3-2 11-5 6-1v-2z"/>
  <path fill="#deb590" d="M80 184c-5 3-5 3-8 3l-1 2q-3 4-8 6l-15 7-2 1-7 4-6 3-2-1q6-6 15-10l8-4 2-1 12-7 5-2 3-1z"/>
  <path fill="#cca082" d="M166 373q3 4 2 9v38c0 17 0 17 8 32l11 6-1 2q-13-5-19-18l-1-9z"/>
  <path fill="#6dece5" d="M400 19q-7 10-18 13h-8q4-6 11-10l2-1z"/>
  <path fill="#fbda82" d="M661 804h5q-2 4-5 4l-3 2-3 1-3 1-21 10-2 1-19 10-13 5q5-7 14-9l31-15 13-7 6-1z"/>
  <path fill="#c5ecec" d="m201 832 12 5 6 2q9 2 17 7v2l2 1 10 3 3 2 3 3v2l-16-7-27-14-2-1-8-4z"/>
  <path fill="#cff9f7" d="M55 184q0 3-4 5l-5 2-2 1-10 4q8-10 21-12m-23 12h2q-3 7-11 11l-6 2-2 4-3 6-2-4 2-2 4-5q5-5 12-8zm-22 23h1v5h-1z"/>
  <path fill="#e0d9b7" d="M497 52q8 2 14 7l5 2 10 5 14 7c18 9 18 9 21 15l1 3-3 2-2-1 2-5h-2l-2-2q-4-5-12-8l-43-22z"/>
  <path fill="#b7fbf9" d="m645 104 15 5v2h2q8 1 14 7l6 2 10 6 5 2 1 3-12-5-4-2-37-19z"/>
  <path fill="#c5af91" d="M226 191h5v2l3 1 9 4 10 4 3 3 4 1v2l2 1q9 1 16 6l1 4-10-4-3-2-3-1-26-14-11-6z"/>
  <path fill="#9bdaca" d="m607 849-6 3-3 2-6 1v2l-7 4-1 1-17 8q-4 0-6 3l-2 1-4-1q9-6 19-10l15-7 8-5 3-2z"/>
  <path fill="#eee487" d="m526 538 1 2 3 1-2 1-16 6-2 2-10 6-10 4-2-1v-2l2-1z"/>
  <path fill="#6eece5" d="m301 68-2 4-4 1-1 1q-3 3-7 3l-3 1h-2v2l-7 2q1-5 5-7l4-2 2-1q7-4 15-4"/>
  <path fill="#c8c9af" d="m41 737 11 4 3 1h2l6 3v2l1 2 6 2 8 5h-4l-3-1-3-1-2-1v-2l-3-1-8-3v-2h-2q-8-2-12-8"/>
  <path fill="#fada81" d="m526 874-41 21-3 1-2 1-2 1-4 1v-2l17-8 2-1 4-2 8-5 4-1 11-6z"/>
  <path fill="#8ee8d8" d="M455 12q7 3 7 6-7 0-13-3-10-6-22-4l-2 1-4 1-2-1q17-9 36 0"/>
  <path fill="#f4d0b6" d="M229 259h2v2l-18 9c-23 10-23 10-42 26l-1-2q4-6 10-10l2-1 27-13 13-7 2-1 2-1z"/>
  <path fill="#e0d9b8" d="m367 53 2 1-9 6-8 4-14 7-5 4q-3 3-7 2l-3 1h-2l10-7 5-2 2-1 9-5 11-5 3-1 3-2z"/>
  <path fill="#e0dab6" d="M415 30q0 3-4 5l-3 1-3 2-3 1-3 2-7 1-1 3-5 3-2 1-3 1-2 1q-4 3-9 1l26-13 14-8z"/>
  <path fill="#d2c2a5" d="M250 843q13 1 23 8l6 3v2h3l3 1 1 2q-10-2-19-6l-3-1-7-4-7-3z"/>
  <path fill="#83e9e1" d="M372 30v2l-3 1-3 2-4 2-6 7-5 2-3 3q-1 3-6 2v-2l2-1 3-1 1-3-2 1h-6l2-1 9-4 3-2 13-6z"/>
  <path fill="#ecb28a" d="m705 795 2 1-17 11-2 1q-10 6-21 9l1-2h2v-2q5-4 11-6l13-6 3-2 3-1 2-1z"/>
  <path fill="#caf1ee" d="m791 769-6 3-2 1-14 7-2 1-10 5-2 1-4 3-10 2q4-4 10-6l2-1 9-4 3-3 4-2 15-7z"/>
  <path fill="#c1ad77" d="M364 550q10 2 18 7l32 17 3 1 3 1 7 2v1q-8 0-15-3l-2-1-46-24z"/>
  <path fill="#c5eded" d="m282 873 8 3h3l6 3 5 2c9 4 9 4 11 7l3 2 4 3-10-4-2-1-2-1-9-5-7-2q-6-2-10-7"/>
  <path fill="#b1b196" d="m173 158 2 1a230 230 0 0 0 38 20q5 2 8 6l-4-1h-3l-4-2v-2l-2-1-17-8-14-6q-5-4-4-7"/>
  <path fill="#6aece4" d="M565 66c19 5 19 5 23 11l1 2q-8 0-15-5l-6-2v-2l-3-1z"/>
  <path fill="#ebeda1" d="M571 232h2l8 2h-6c-15-1-28 7-40 14l-5 1-2-1 10-5 7-3 2-1 5-3q9-4 19-4"/>
  <path fill="#eceba1" d="m701 165-22 11-6 4-8 4-3 1h-7l3-1 2-1 33-17 3-1z"/>
  <path fill="#6ee7e4" d="M548 881v3q-9 8-21 9l3-4h2l1-2q2-4 6-5z"/>
  <path fill="#dfd8b5" d="m580 94 15 7c9 4 9 4 10 6q-8-2-15-6-5-3-11-3l-2-1-9 1-7-1q8-6 19-3"/>
  <path fill="#6de9e6" d="M631 840v3l-8 3-1 3-4 2h-3l-6 2q1-5 6-8c12-7 12-7 16-5"/>
  <path fill="#fbda84" d="m759 759-3 1-1 1-18 9-4 2-6 3-3 2-3 1q-5 3-12 2h-7q3-2 8-2 7 0 13-4l4-2 16-8c12-6 12-6 16-5"/>
  <path fill="#ddbc97" d="m796 189 16 7 3 2c6 4 6 4 13 6v2l4 2v2l2 1h-3v-2l-2-1q-8-2-14-6v-2l-3-1-8-4-4-1-3-2z"/>
  <path fill="#bdcaae" d="m134 156-2 1-2 1-3 1-4 3q-3 3-7 2l-1 3-14 7-8 4-5 1v2l-4-1 9-5 3-2 23-12c12-7 12-7 15-5"/>
  <path fill="#6eeee7" d="M168 134v2l-2 1-3 1-3 2-3 3-4 2h-3l-4 1-1-4c15-8 15-8 23-8"/>
  <path fill="#e8bf78" d="M409 909q4 0 8 3 10 3 20 2l9 1v1q-13 4-27 1l-1-3h-3q-5-1-5-3z"/>
  <path fill="#bcfcfb" d="m312 60-36 18-3 1-3 2-2 1-4 1 1-3 5-2 9-4 4-1v-2l8-2v-2l2-1 3-1 3-2 6-3z"/>
  <path fill="#a2eae6" d="m31 741 37 19q-7 2-13-3l-5-3-3-1-2-1-1-3h-2l-11-5z"/>
  <path fill="#7feae3" d="M41 195v2l-4 3h2l8-2q-4 5-9 6l-8 6-4 3 4-7 1-5q4-6 10-6"/>
  <path fill="#bdfcfb" d="m400 14 3 1-2 1-39 19 3-4 3-2 12-6c12-7 12-7 18-8z"/>
  <path fill="#c1ac78" d="m314 524 18 8 32 16v2l-14-6-30-16-3-1z"/>
  <path fill="#69ece5" d="M523 45q10 1 19 7l-1 4-8-3-3-1-2-1-2-1-3-3z"/>
  <path fill="#befcfc" d="m355 39-42 20v-2q9-7 20-9l1-3c6-3 14-8 21-6"/>
  <path fill="#bdcbb1" d="m551 874 2 1c-17 11-17 11-27 13l-6 4-4-1q4-4 10-6h2l6-2 3-1v-2l9-4 3-1z"/>
  <path fill="#e5b590" d="m344 66-3 1-21 11-2 1-7 5 1-5 5-3 2-2 3-1 3-2 9-3 4-2z"/>
  <path fill="#d7be9b" d="M763 174q9 0 17 6l6 3 10 5h-7l-9-5-9-4-8-4z"/>
  <path fill="#ebeda2" d="M655 186v2l-27 14-4 2h-7l2-1 30-15z"/>
  <path fill="#d7bd9c" d="M459 20q19 4 33 17l-13-5-7-4-2-1-5-2z"/>
  <path fill="#b4faf9" d="M472 17q8 0 15 5l3 1 6 4 5 2 3 2v2q-7-1-13-6l-19-9z"/>
  <path fill="#d6c2a6" d="m219 826 6 1v2h3l6 3 3 1 4 4 5 2 2 1 2 1v2l-11-4-3-1-3-4-4-2q-6-1-10-6"/>
  <path fill="#abd8c7" d="m188 812 5 2 3 1 18 8 2 1q5 2 8 6l-12-5-24-10z"/>
  <path fill="#e2bc9a" d="m23 720 2 2 8 6 3 3 4 2v2l3 1 10 4q-5 1-8-1l-5-2q-11-5-17-14z"/>
  <path fill="#ebec9e" d="M617 205v2l-16 8q-10 4-17 13c0-5 0-5 3-8l24-13 2-1z"/>
  <path fill="#b9fcfb" d="m261 83 2 1-28 15-2 1-5 2-3-1q11-8 24-11v-2l6-3 3-1z"/>
  <path fill="#a0ddd0" d="m526 888 2 1c-10 7-10 7-15 7l-1 3q-5 3-11 2 4-4 9-6l6-2 2-2z"/>
  <path fill="#8be6d4" d="m183 129 2 1-18 9-10 6-4 1-2-1 2-2h4l1-3 12-5 2-1 6-3z"/>
  <path fill="#a6dac2" d="M654 116q7 0 13 5 5 4 12 4 4 2 6 6c-10-2-23-7-31-15"/>
  <path fill="#dfd9b5" d="m307 95 3 1q-4 2-10 0l-17 2-4-1q13-8 28-2"/>
  <path fill="#a9decb" d="M568 72q7 1 13 5l9 5c14 6 14 6 16 10l-12-5-1-2-6-2-19-10z"/>
  <path fill="#e6b892" d="m609 846-8 4-14 7-1 1-9 5-2-1q2-3 6-4l9-5 7-3 1-1q5-5 11-3"/>
  <path fill="#caeeee" d="m322 893 6 2 7 3 11 6 15 8a115 115 0 0 1-39-19"/>
  <path fill="#e2d9b5" d="M271 102v2l-20 10-7 4-3 1h-6l14-7 4-2 2-1 2-1 5-1v-2z"/>
  <path fill="#b8eeeb" d="M343 902q16 4 30 12v3l-14-6-3-2-13-6z"/>
  <path fill="#a4dccb" d="m135 786 15 5 3 1 13 8h-7l-3-1-3-2-6-4-2-1-2-1-2-1-6-3z"/>
  <path fill="#e0d8b5" d="m219 127 2 1q-6 7-16 9l-4 2-6 1v2l-4-1 3-2 17-8 3-2 3-1z"/>
  <path fill="#87e8df" d="M407 13v2l-5 3-1 2 2-1 2-2 3-1h6-3v2l-16 7q1-3 4-5l-4-2 5-2 3-2z"/>
  <path fill="#b7f4f1" d="m448 933 2 1q-8 6-18 4h-9l-8-2 8-1h17z"/>
  <path fill="#c8eded" d="M171 817q9 2 17 6l8 3v2h4l1 4q-5 0-8-3l-13-7c-8-3-8-3-9-5"/>
  <path fill="#bacaae" d="m829 738-3 1-1 3-8 2v2l-8 4-2 1-6 2-2-1 14-7 6-3v-2l6-2z"/>
  <path fill="#e4b48d" d="m142 155-16 8-2 1-5 3h-6q3-4 9-4l2-1 1-3c5-3 12-7 17-4"/>
  <path fill="#b4fbfa" d="M524 43q8 0 14 5l4 1v2h2l7 3v2l3 1-2 1-6-3-2-1-20-10z"/>
  <path fill="#fad883" d="m474 900-2 1-7 4-2 1-3 1-2 2-10 5q-4 2-9 1l7-4 2-1 15-7 3-2 3-1z"/>
  <path fill="#69ece5" d="M672 120q10 2 18 7l-3 3-5-1-1-3h-5l-1-3-3-1z"/>
  <path fill="#a2ebe8" d="m146 800 12 5 3 2 4 2 3 1 9 5h-6l-3-1-3-2-2-1-6-3-3-2-8-4z"/>
  <path fill="#ddbfa1" d="M64 747h3v2h2l5 2 9 5 12 5q-7 2-14-3l-9-5-8-4z"/>
  <path fill="#9cdacc" d="m330 884 6 1 1 2 4 2 2 1 15 9h-5v-2l-2-1-11-5-2-1-6-3-2-1z"/>
  <path fill="#e5ba96" d="M566 867q-8 7-20 10l-5 2-4 1 7-5 9-5 3-1 3-2z"/>
  <path fill="#dbbd9a" d="m817 743-15 8-3 2-6 2v2l-4-1 7-3 1-3q6-4 14-5v-2z"/>
  <path fill="#dfb893" d="m196 125 2 1q-12 8-27 12 10-8 22-11z"/>
  <path fill="#aad9c7" d="m91 763 14 5 1 2 6 3q7 2 7 4l-8-3-4-1q-9-3-16-10"/>
  <path fill="#eeaf89" d="m463 915 2 1q-7 6-15 8l-2 1q-11 4-23 2v-1h3q15-1 29-8z"/>
  <path fill="#c9efee" d="m254 859 16 5 8 3v3l4 2-2 1-4-2-22-11z"/>
  <path fill="#e8eca2" d="m514 258-19 10-3 1h-6l5-3 3-1 8-4 6-3z"/>
  <path fill="#acd3be" d="m634 833 2 1-4 3-3 2-5 1v2l-7 3-2 1-6 2-2-1 8-4q8-3 15-9z"/>
  <path fill="#c7eeed" d="M137 799h4l3 1h2l1 2 3 1q7 3 12 9l-2 1-2-1q-9-7-21-12z"/>
  <path fill="#a1ece9" d="m329 893 11 4 4 2 16 8h-5l-2-1-11-4-5-4-6-2v-2z"/>
  <path fill="#e0bc97" d="m516 893-6 3-2 1-13 6-3-1h2v-2l6-3 3-2q7-4 13-2"/>
  <path fill="#a0e1cf" d="M685 131q11 1 18 7l1 3q-8-1-14-5l-1-3-4-1z"/>
  <path fill="#debd99" d="M492 37q13 2 24 10v2l-16-7-4-2z"/>
  <path fill="#a9d7c3" d="m664 821-8 2-1 3h-2l-1 3-4 1-8 3-4-1c9-6 9-6 15-5v-2h3l1-3q4-3 9-1"/>
  <path fill="#eeb97b" d="m781 194 10 3 3 2 4 1 3 2 12 7-1 2-2-1-29-15z"/>
  <path fill="#b1f3f0" d="m765 778-3 4-2 1-2 1-2 1-5 2-2 1-5 3-5 1-2-1 3-2 2-1 14-7 3-1 2-1z"/>
  <path fill="#cbf0f0" d="M514 906c-19 11-19 11-22 11l-2-1h2v-2l2-1 3-1 3-2 4-3q5-3 10-1"/>
  <path fill="#a9d8c9" d="M300 869q6 1 7 3l4 2 19 9h-6l-2-1-18-9v-2l-4-1z"/>
  <path fill="#ded8b7" d="M191 142q0 3-4 5l-7 1-5 11-2-1v-6c4-4 12-10 18-10"/>
  <path fill="#e4d17b" d="m547 694 2 3-13 8-2-1q5-7 13-10"/>
  <path fill="#b7fbfa" d="m710 137 8 1v2h3l9 5 3 1 1 3-15-7-3-1-6-3z"/>
  <path fill="#89e8dd" d="m16 709 3 7q5 10 14 16l-4 1-5-5-2-1q-3-3-4-7l-1-3z"/>
  <path fill="#f3e6a1" d="M553 525q-2 5-7 6l-3 1-9 3h-5l3-2 5-2 2-1 2-1 2-1c6-3 6-3 10-3"/>
  <path fill="#abdac3" d="m803 191 13 5 2 1 10 7-10-4-3-1-2-2-3-1-7-4z"/>
  <path fill="#b1f3f3" d="M553 883v2l-25 12-2-1 9-5 3-1z"/>
  <path fill="#e4d7a9" d="m468 315 17 8 2 1 10 5-4 1-5-3-15-7v-2l-5-2z"/>
  <path fill="#6eece6" d="m52 193-2 1v2l-5 3-2 1h-7l3-3h2v-3c8-2 8-2 11-1"/>
  <path fill="#e1bb98" d="M534 58q11 1 19 8l3 2 4 3q-7 0-12-5l-14-7z"/>
  <path fill="#b5d4c3" d="m357 897 5 1v2l3 1 9 4 9 4h-4l-19-8v-2l-3-1z"/>
  <path fill="#d4a68b" d="m256 832 11 3v2l6 1v2h2l8 4 2 1h-6l-3-2-4-2-16-8z"/>
  <path fill="#a3dccc" d="M55 745q12 4 22 10l1 2-11-3-1-3-6-2-5-2z"/>
  <path fill="#e6b48f" d="m201 136-12 7-2 1-6 3-2-1 9-7 4-2z"/>
  <path fill="#d9c7a6" d="m846 716 1 4c-3 6-8 14-14 16h-2l5-5 5-8 4-3z"/>
  <path fill="#a0d8c2" d="m269 87 2 1-15 8-2 1h-6 2l2-1 1-3 5-1 9-4z"/>
  <path fill="#80e9e2" d="m448 6 10 4 3 1 7 4 1 6q-5-1-8-5l2-1-15-7z"/>
  <path fill="#e7b893" d="M196 813q7 2 12 6l14 6v1q-14-2-26-12z"/>
  <path fill="#d2a589" d="M215 811q8 1 15 6l13 6v2q-10-2-18-8l-3-1-7-4z"/>
  <path fill="#afd7c4" d="m705 798 2 1-12 7-2 2-3 1h-6l3-2 5-2 2-2 2-1 2-1z"/>
  <path fill="#a4dec9" d="M761 170q9 1 16 6l2 1 8 6-16-7-10-5z"/>
  <path fill="#d1c4a7" d="m418 16-1 2-6 1-2 1-1 3-9 1q3-4 8-5l4-1v-2z"/>
  <path fill="#e0b993" d="m685 809-18 8 1-2h2v-2c4-3 10-7 15-4"/>
  <path fill="#c6c6a9" d="m290 79-2 1-3 1-1 3-8 3h-5l5-2v-2l5-3 2-1z"/>
  <path fill="#e8b68f" d="M789 757q-1 4-5 4l-3 1-7 3-2 1-2-1q8-9 19-8"/>
  <path fill="#6ae7e4" d="M581 864v2h2v2c-5 3-5 3-9 3l-2-1 4-5z"/>
  <path fill="#ebb28d" d="m278 844 2 1q12 4 24-1l-1 4q-11 4-23-1z"/>
  <path fill="#e1d4a9" d="M531 347q7 2 13 6l2 1 6 5q-12-2-21-11z"/>
  <path fill="#b0d7c0" d="m729 154 14 6 2 1 6 3h-6l-2-1-2-1-3-1-2-2q-7-3-7-5"/>
  <path fill="#bdc9ae" d="m313 68-7 4-2 1-14 5v-2l2-1 15-7z"/>
  <path fill="#b0dac7" d="M544 60q6 1 7 3l7 1v2h2l4 4c-11-3-11-3-16-7l-4-2z"/>
  <path fill="#aadfcc" d="M500 37q6 0 11 5l7 4-4 1-4-2-7-4-2-1z"/>
  <path fill="#e6ba99" d="M182 807q8 1 14 6l4 2 2 2-2 1q-10-4-18-10z"/>
  <path fill="#fbda80" d="m697 777 4 1-3 2-2 4q-3 8-11 12l-3-1 2-1q10-5 13-17"/>
  <path fill="#d7c28f" d="m560 503 2 4-2 1v2l-4 8-2 3-3 3 4-9q4-5 5-12"/>
  <path fill="#aeb388" d="m585 220 2 1-2 5-2 3-3 3h-7l-4-1h-3v-1h14l1-3q1-5 4-7"/>
  <path fill="#8ee5dd" d="m612 846 2 1q-9 9-22 10v-2l2-1z"/>
  <path fill="#e9eca3" d="M486 270v2h-3v2l-3 1-3 2-4 2-4 2h-5l12-7 2-1z"/>
  <path fill="#62ebe8" d="M23 208h2l-1 6-3 1-1 2-1 2-3 1q1-7 7-12"/>
  <path fill="#8ee8d9" d="m290 77-2 1-6 3-6 2v2l-5 2-3 1h-4l8-4 2-1 2-1 2-1 4-1v-2z"/>
  <path fill="#b1f1f0" d="m727 796 2 1q-7 6-15 8l-4-1 8-4 3-1 2-1 2-1z"/>
  <path fill="#9be1d1" d="m843 725 1 4q-6 8-14 11l-4-1 2-1q10-4 15-13"/>
  <path fill="#bafbfa" d="m756 160 7 1v2l6 1v2l6 1v3l-19-9z"/>
  <path fill="#e4ad87" d="m173 149 3 1-1 2-2 2-2 2-1 7-6-1 3-6h3l1-3z"/>
  <path fill="#85e3db" d="m409 925 5 1 3 1 5 2 9 2h6v1c-17 1-17 1-24-4l-4-1z"/>
  <path fill="#bbcfb8" d="m573 863 2 1-8 5-2 2-2 1-2 1h-6c12-8 12-8 18-10"/>
  <path fill="#ccc5a7" d="m328 58 2 1-7 4-1 3-9 1q3-4 7-5l5-3z"/>
  <path fill="#e5b38d" d="M345 54c-13 8-13 8-20 8q9-9 20-8"/>
  <path fill="#bec5a8" d="M399 24v2l-7 3-1 1-12 4v-2l2-1 10-5z"/>
  <path fill="#b5ebea" d="M278 867q6 2 6 4l11 5v1q-5 1-10-2l-2-2-5-3z"/>
  <path fill="#e4ae86" d="m308 85 1 2-3 6h-13l-5-1v-1h12l5-1z"/>
  <path fill="#6aeee5" d="m608 88 12 5v2c-8 0-8 0-11-3z"/>
  <path fill="#c5c9ae" d="m466 916 4 1c-15 8-15 8-21 8q3-4 9-5z"/>
  <path fill="#e2b690" d="M472 27q11 2 20 9l-2 1-14-7-4-2z"/>
  <path fill="#ecb78f" d="M839 727q-1 4-5 7l-2 1-1 2-5 1-3 1h-2l6-4 2-1 4-1v-2q5-5 6-4"/>
  <path fill="#e9b28a" d="m302 75-2 1-16 9 1-4c4-3 12-8 17-6"/>
  <path fill="#9ddbc5" d="M342 52q-8 7-19 8 2-3 6-4l3-1 4-1v-2z"/>
  <path fill="#b6eae9" d="m201 830 19 8v1q-10-1-19-7z"/>
  <path fill="#b2d2bd" d="M205 820q7 2 13 6l3 2 3 1-4 1-7-4-2-1z"/>
  <path fill="#e3d8b4" d="M684 147q7 2 13 8 3 4 2 9l-3-6q-4-6-12-10z"/>
  <path fill="#a9dcc9" d="m362 40 2 1q-3 5-7 5l-3 1h-5q3-4 8-5l3-1z"/>
  <path fill="#cff1f2" d="M696 812h6q-1 4-6 4l-7 4-2 1-3-1 12-6z"/>
  <path fill="#b5edeb" d="m28 739 3 2v3l3 1 10 4v2l-10-3v-2l-2-1-3-1z"/>
  <path fill="#8ee1d5" d="m486 910-6 4-2 1q-4 4-7 3l-2-1c13-9 13-9 17-7"/>
  <path fill="#cec7aa" d="M121 777h4v2h2l8 4 2 1 2 1h-7l-3-2-2-1z"/>
  <path fill="#a2efed" d="m448 933 2 1q-4 4-9 3h-17v-1h12z"/>
  <path fill="#8fe2d9" d="m235 837 15 6v2l-15-6z"/>
  <path fill="#c0ccae" d="m828 204 7 4 4 4 2 2 2 1-1 2-2-2-8-5-4-4z"/>
  <path fill="#93e2d9" d="m553 874 4 1-4 2-2 2-2 1-2 1h-6l2-1 3-2 3-2z"/>
  <path fill="#becfb9" d="m607 849-6 3-3 2-8 2q4-4 9-6l2-1z"/>
  <path fill="#a3dac9" d="m724 789 2 1-4 1v2l-5 1-1 3-7 1q3-4 7-5l5-3z"/>
  <path fill="#a5d9c4" d="m817 746-8 4-2 1-6 2-2-1q8-7 18-6"/>
  <path fill="#d1c2a4" d="M41 202q-1 5-5 7l-3 1-2-1c7-7 7-7 10-7"/>
  <path fill="#c6c5a9" d="M80 184c-5 3-5 3-8 3l-1 3-7 1c3-4 11-10 16-7"/>
  <path fill="#a1dac4" d="m704 141 11 4 3 2 2 1h-7l-3-2-3-1z"/>
  <path fill="#d8bf9d" d="M693 138q8 1 14 5l1 2-15-5z"/>
  <path fill="#9ee4d2" d="m185 130-16 8q1-5 7-7l2-1z"/>
  <path fill="#96dfc8" d="M671 124c9 1 9 1 13 5l1 2-10-3v-2l-4-1z"/>
  <path fill="#baf3f2" d="m519 899 2 1c-10 7-10 7-17 7q4-4 9-5l3-2z"/>
  <path fill="#e6bd76" d="m309 856 11 6v2l2 1h-5v-2h-2q-4-2-6-7"/>
  <path fill="#eeeea0" d="m456 284 2 1-2 2-3 2-3 2q-3 2-3 6l-1 2-1-3q0-5 5-8z"/>
  <path fill="#deba96" d="m142 155-18 6q4-5 10-6z"/>
  <path fill="#c8fbfa" d="m556 56 6 3v2h3l1 3-12-5 2-1z"/>
  <path fill="#caf0f0" d="M599 864h-2v2c-7 3-7 3-12 3l6-3v-2z"/>
  <path fill="#93e2d3" d="m763 771-1 4-12 3 7-5 2-1z"/>
  <path fill="#e3b690" d="m91 178 2 1q-7 6-16 7c4-5 4-5 8-5h3v-2z"/>
  <path fill="#ccc6a8" d="m185 129 2 1-2 1-3 2-7 5-4-1 5-3 2-1z"/>
  <path fill="#e2d8b7" d="m233 120 2 1c-5 5-7 6-14 6z"/>
  <path fill="#cac5a8" d="m219 112 2 1q-2 4-6 5h-7l5-3 3-2z"/>
  <path fill="#bad1b8" d="m627 103 17 7h-6l-11-6z"/>
  <path fill="#93e1cf" d="m529 52 10 3 2 2 3 3-15-7z"/>
  <path fill="#bccbb1" d="m485 31 16 7h-7l-2-1-3-2z"/>
  <path fill="#e3c175" d="M384 895h2l1 2 5 2q6 2 6 4h-2l-4-1-6-2z"/>
  <path fill="#eeb58b" d="m550 872 2 1q-4 5-11 6l-4 1q3-4 8-6l3-1z"/>
  <path fill="#dfd8b8" d="m320 78-1 3-2 2-2 2-5 2q1-5 5-7z"/>
  <path fill="#e8b28b" d="m394 27 2 1c-11 8-11 8-17 8v-2l2-1 11-5z"/>
  <path fill="#e8b992" d="M694 804q-6 5-14 5c8-7 8-7 14-5"/>
  <path fill="#b0f3f1" d="M811 755q0 4-4 4l-3 2-3 1h-5l6-3 2-2z"/>
  <path fill="#b3bd8c" d="m446 289 2 1-1 2-1 2-1 2-2 5h-3l2-7h2v-4z"/>
  <path fill="#eeb187" d="m33 209 2 1-10 10q0-4 3-7l1-1z"/>
  <path fill="#e4b892" d="m623 103 10 4 3 2 2 1-2 1-7-3-1-1-5-3z"/>
  <path fill="#cec3a4" d="m554 67 14 5v1l-8-1v-2l-6-2z"/>
  <path fill="#b8d3c1" d="m404 921 16 6h-8l-3-1-5-3z"/>
  <path fill="#cbeeee" d="m282 873 15 6h-7q-5-2-8-6"/>
  <path fill="#e7b692" d="m81 755 14 6q-4 2-9-1l-2-1z"/>
  <path fill="#f1b579" d="m505 884 2 1-8 5-2 1h-6l7-4 2-1z"/>
  <path fill="#b5d4c2" d="M272 854c10 3 10 3 13 7l-13-5z"/>
  <path fill="#a5d9c2" d="M789 184c11 3 11 3 14 7l-10-4-2-1-2-1z"/>
  <path fill="#bacbaf" d="m613 96 10 4 2 1 2 1-4 1-5-3-3-2-2-1z"/>
  <path fill="#ebb791" d="m463 915 2 1q-6 5-13 7v-2l4-2 3-2z"/>
  <path fill="#d8bf9e" d="m527 887-3 3-2 1-4 1-2-1q4-6 11-4"/>
  <path fill="#d4bc9a" d="m588 857-5 3-3 2-3 1-2-1q2-3 5-4l3-1z"/>
  <path fill="#c7bf9e" d="m29 210 2 1-1 1-8 10q0-6 6-11z"/>
  <path fill="#a1d8c4" d="m66 189-4 3-3 2-7 2 3-3h3l1-3q4-3 7-1"/>
  <path fill="#ebb28b" d="m111 168 2 1-5 3-3 2-5 2-1-2 9-5z"/>
  <path fill="#90e3d1" d="M213 116q-6 4-13 6v-2l4-3 3-1z"/>
  <path fill="#eeaa81" d="m310 80 2 1q-3 7-9 10l4-8h2zm-9 11 2 1Z"/>
  <path fill="#a0dcc6" d="M430 9h15v2l3 1-2 1-11-3h-5z"/>
  <path fill="#add3bc" d="M501 902q-3 3-8 2l-1 3-4-1c9-5 9-5 13-4"/>
  <path fill="#bbcab1" d="m707 799-4 3-3 1h-6l4-3 3-1z"/>
  <path fill="#ebeca0" d="m526 249 2 1-11 7-3-1q5-4 9-5z"/>
  <path fill="#c9d4b8" d="m434 147 11 1v1l-11 1h-5l2-1z"/>
  <path fill="#95dfcc" d="M568 72q7 1 13 5h-6l-3-1-2-2-2-1z"/>
  <path fill="#9de5d5" d="M414 16h-3v2l-7 4-2-1c7-7 7-7 12-5"/>
  <path fill="#d7c1a2" d="m329 882 9 2v2l4 2-2 1-4-2v-2l-7-2z"/>
  <path fill="#debe99" d="m654 824-3 1v2l-8 1v-2z"/>
  <path fill="#e6b58d" d="m741 780-4 3-2 1-5 1v-2l6-3z"/>
  <path fill="#a7dfcd" d="m25 726 8 6h-6q-2-1-2-6"/>
  <path fill="#f4cdb2" d="m282 233 2 1-11 6-2-2 5-3 3-1z"/>
  <path fill="#eab287" d="M484 907q-5 4-12 5v-2c7-3 7-3 12-3"/>
  <path fill="#c5cdb5" d="m645 827 2 1-3 3-2 1-4 1-2-1 4-3 3-1z"/>
  <path fill="#e1ca74" d="M699 770h4q-1 5-5 8z"/>
  <path fill="#e2d3a5" d="M555 362q6 4 5 10l-4-3z"/>
  <path fill="#bccaac" d="m167 138 2 1-3 3-2 1-4 1-2-1z"/>
  <path fill="#debc9b" d="m229 110-7 5-3-1q4-5 10-4"/>
  <path fill="#b9cfb6" d="m269 87 2 1-4 3-2 1-4 1-2-1 5-3 3-1z"/>
  <path fill="#c5fcfb" d="M273 76h2l-3 4-2 1-2 1-4 1 1-3 7-3z"/>
  <path fill="#b7d6c0" d="m448 13 12 4h-6l-2-1-2-1-2-1z"/>
  <path fill="#d6c6aa" d="M190 812h5l3 3 4 2-2 1-5-2-3-2-2-1z"/>
  <path fill="#dbbb96" d="m712 793 2 1-5 4-4-1q4-5 7-4"/>
  <path fill="#d6bf9c" d="M789 757q-1 4-5 4l-4-1q4-4 9-3"/>
  <path fill="#cea388" d="m176 454 11 4-1 2-10-5z"/>
  <path fill="#b5ba84" d="m585 220 2 1-5 10h-1c1-8 1-8 3-10z"/>
  <path fill="#c9efee" d="m392 928 9 1 1 3-4-1h-3l-2-1z"/>
  <path fill="#84dfd5" d="M447 926h4v2l-4 2h-8l8-2z"/>
  <path fill="#c3f8f9" d="m856 711 2 2c0 5-1 5-5 9z"/>
  <path fill="#d0ddaa" d="m458 284-6 4-4 2 1-4q4-4 9-2"/>
  <path fill="#b0cdb4" d="M20 220h2l-1 4-1 3-3 4c1-8 1-8 3-11"/>
  <path fill="#99dece" d="M47 199q-4 4-10 4c5-5 5-5 10-4"/>
  <path fill="#d2dfc5" d="m458 148 2 1-3 3-2 2-4 1q1-5 7-7"/>
  <path fill="#e6b58c" d="m171 138 2 1-4 3-3 1-2 1-2-1 3-3 2-1z"/>
  <path fill="#b8c9ab" d="m202 123-4 3-3 1-4 1v-2c7-4 7-4 11-3"/>
  <path fill="#9ae6d7" d="M554 64h4v2h2l4 4q-6-1-10-6"/>
  <path fill="#a0e2d1" d="m500 37 7 1 1 3h-6z"/>
  <path fill="#afd8c6" d="M460 18q7 0 10 5-6-1-10-5"/>
  <path fill="#e5be76" d="M359 883q5 1 9 5l-7-1z"/>
  <path fill="#e9b590" d="m43 736 10 4q-5 1-10-2z"/>
  <path fill="#e4b88f" d="M738 162h4l2 1 5 2v2l-4-1-3-1z"/>
  <path fill="#d5c1a4" d="m371 37 2 1-4 4h-6q3-4 8-5"/>
  <path fill="#b3d6c3" d="m468 916 2 1-4 2-2 1-2 1-2-1c5-4 5-4 8-4"/>
  <path fill="#f2b593" d="m239 824 11 5h-6z"/>
  <path fill="#99e0d4" d="M188 812q5 1 7 5l-7-2z"/>
  <path fill="#d3c2a2" d="m685 809-7 4-2-1q4-5 9-3"/>
  <path fill="#fbdb86" d="m679 796 3 1-7 4-3-1z"/>
  <path fill="#add2bc" d="m83 759 8 2v2h-4v-2h-4z"/>
  <path fill="#f2caae" d="m269 239 2 1q-2 4-7 4h-3z"/>
  <path fill="#c3c178" d="m583 226 2 3-3 5-6-1 6-2z"/>
  <path fill="#a5dbc9" d="m32 205 2 1-8 7q2-5 6-8"/>
  <path fill="#9dddc9" d="M720 149c6 0 6 0 8 3l1 2q-5-1-9-5"/>
  <path fill="#dab892" d="M159 144h3q-4 4-10 4 2-4 7-4"/>
  <path fill="#d8e0c5" d="M311 86h2v4l4 3q-6-1-7-3z"/>
  <path fill="#89e4d3" d="M385 27h5q-5 5-11 5l2-2h3z"/>
  <path fill="#ebb794" d="m427 14-4 2-2 1-4 1 1-3c6-2 6-2 9-1"/>
  <path fill="#d0f4f5" d="M9 715h2l2 7-1 2z"/>
  <path fill="#e9b78d" d="m824 205 7 2 1 3 2 1h-3v-2l-3-1z"/>
  <path fill="#c4f7f7" d="m246 88 3 2-6 3-3-1z"/>
  <path fill="#d7f6f5" d="M177 118h3v2h-3z"/>
  <path fill="#d5f3f4" d="M2 339h2v2H2z"/>
  <path fill="#d5f2f4" d="m2 345 2 1-2 1z"/>
  <path fill="#d6f3f4" d="m684 116 2 2h-2z"/>
  <path fill="#d9f5f7" d="m216 99 2 2h-2z"/>
  <path fill="#d6f3f5" d="m329 40 1 2-2-1z"/>
  <path fill="#d8f6f7" d="m361 28 2 1-2 1z"/>
</svg>
